<mxfile host="app.diagrams.net" modified="2024-02-09T17:54:42.314Z" agent="Mozilla/5.0 (Windows NT 10.0; Win64; x64) AppleWebKit/537.36 (KHTML, like Gecko) Chrome/121.0.0.0 Safari/537.36" etag="8yK4EM-KgJp2vV_B4EXv" version="23.1.2" type="device">
  <diagram id="C5RBs43oDa-KdzZeNtuy" name="Page-1">
    <mxGraphModel dx="800" dy="304" grid="1" gridSize="10" guides="1" tooltips="1" connect="1" arrows="1" fold="1" page="1" pageScale="1" pageWidth="827" pageHeight="1169" math="0" shadow="0">
      <root>
        <mxCell id="WIyWlLk6GJQsqaUBKTNV-0" />
        <mxCell id="WIyWlLk6GJQsqaUBKTNV-1" parent="WIyWlLk6GJQsqaUBKTNV-0" />
        <mxCell id="PsWJkAB9E4H3LvCqjvFp-3" style="edgeStyle=orthogonalEdgeStyle;rounded=0;orthogonalLoop=1;jettySize=auto;html=1;exitX=0.5;exitY=1;exitDx=0;exitDy=0;entryX=0.5;entryY=0;entryDx=0;entryDy=0;strokeColor=default;endArrow=none;endFill=0;" edge="1" parent="WIyWlLk6GJQsqaUBKTNV-1" source="PsWJkAB9E4H3LvCqjvFp-0" target="PsWJkAB9E4H3LvCqjvFp-1">
          <mxGeometry relative="1" as="geometry" />
        </mxCell>
        <mxCell id="PsWJkAB9E4H3LvCqjvFp-0" value="Inicio" style="rounded=1;whiteSpace=wrap;html=1;fillColor=#d5e8d4;strokeColor=#82b366;" vertex="1" parent="WIyWlLk6GJQsqaUBKTNV-1">
          <mxGeometry x="410" y="140" width="70" height="30" as="geometry" />
        </mxCell>
        <mxCell id="PsWJkAB9E4H3LvCqjvFp-4" style="edgeStyle=orthogonalEdgeStyle;rounded=0;orthogonalLoop=1;jettySize=auto;html=1;exitX=0.5;exitY=1;exitDx=0;exitDy=0;entryX=0.5;entryY=0;entryDx=0;entryDy=0;endArrow=none;endFill=0;" edge="1" parent="WIyWlLk6GJQsqaUBKTNV-1" source="PsWJkAB9E4H3LvCqjvFp-1" target="PsWJkAB9E4H3LvCqjvFp-2">
          <mxGeometry relative="1" as="geometry" />
        </mxCell>
        <mxCell id="PsWJkAB9E4H3LvCqjvFp-1" value="Imprimir: &quot;Ingresa la cantidad de productos que desea:&quot;" style="shape=parallelogram;perimeter=parallelogramPerimeter;whiteSpace=wrap;html=1;fixedSize=1;" vertex="1" parent="WIyWlLk6GJQsqaUBKTNV-1">
          <mxGeometry x="340.63" y="200" width="210" height="40" as="geometry" />
        </mxCell>
        <mxCell id="PsWJkAB9E4H3LvCqjvFp-6" style="edgeStyle=orthogonalEdgeStyle;rounded=0;orthogonalLoop=1;jettySize=auto;html=1;exitX=0.5;exitY=1;exitDx=0;exitDy=0;entryX=0.5;entryY=0;entryDx=0;entryDy=0;endArrow=none;endFill=0;" edge="1" parent="WIyWlLk6GJQsqaUBKTNV-1" source="PsWJkAB9E4H3LvCqjvFp-2" target="PsWJkAB9E4H3LvCqjvFp-5">
          <mxGeometry relative="1" as="geometry" />
        </mxCell>
        <mxCell id="PsWJkAB9E4H3LvCqjvFp-2" value="Leer:cantidad_salchipapas" style="shape=parallelogram;perimeter=parallelogramPerimeter;whiteSpace=wrap;html=1;fixedSize=1;" vertex="1" parent="WIyWlLk6GJQsqaUBKTNV-1">
          <mxGeometry x="350.01" y="260" width="190" height="30" as="geometry" />
        </mxCell>
        <mxCell id="PsWJkAB9E4H3LvCqjvFp-5" value="65.000 * cantidad_salchipapas = precio_productos" style="rounded=1;whiteSpace=wrap;html=1;" vertex="1" parent="WIyWlLk6GJQsqaUBKTNV-1">
          <mxGeometry x="339.37" y="310" width="211.25" height="30" as="geometry" />
        </mxCell>
        <mxCell id="PsWJkAB9E4H3LvCqjvFp-10" value="" style="edgeStyle=orthogonalEdgeStyle;rounded=0;orthogonalLoop=1;jettySize=auto;html=1;endArrow=none;endFill=0;" edge="1" parent="WIyWlLk6GJQsqaUBKTNV-1" source="PsWJkAB9E4H3LvCqjvFp-8" target="PsWJkAB9E4H3LvCqjvFp-5">
          <mxGeometry relative="1" as="geometry" />
        </mxCell>
        <mxCell id="PsWJkAB9E4H3LvCqjvFp-12" value="" style="edgeStyle=orthogonalEdgeStyle;rounded=0;orthogonalLoop=1;jettySize=auto;html=1;endArrow=none;endFill=0;" edge="1" parent="WIyWlLk6GJQsqaUBKTNV-1" source="PsWJkAB9E4H3LvCqjvFp-8" target="PsWJkAB9E4H3LvCqjvFp-9">
          <mxGeometry relative="1" as="geometry" />
        </mxCell>
        <mxCell id="PsWJkAB9E4H3LvCqjvFp-8" value="precio_productos * 0.08 = precio_impuesto" style="rounded=1;whiteSpace=wrap;html=1;" vertex="1" parent="WIyWlLk6GJQsqaUBKTNV-1">
          <mxGeometry x="339.37" y="360" width="211.25" height="30" as="geometry" />
        </mxCell>
        <mxCell id="PsWJkAB9E4H3LvCqjvFp-21" style="edgeStyle=orthogonalEdgeStyle;rounded=0;orthogonalLoop=1;jettySize=auto;html=1;exitX=0.5;exitY=1;exitDx=0;exitDy=0;entryX=0.5;entryY=0;entryDx=0;entryDy=0;endArrow=none;endFill=0;" edge="1" parent="WIyWlLk6GJQsqaUBKTNV-1" source="PsWJkAB9E4H3LvCqjvFp-9" target="PsWJkAB9E4H3LvCqjvFp-16">
          <mxGeometry relative="1" as="geometry" />
        </mxCell>
        <mxCell id="PsWJkAB9E4H3LvCqjvFp-9" value="precio_productos + precio_impuesto = precio_total" style="rounded=1;whiteSpace=wrap;html=1;" vertex="1" parent="WIyWlLk6GJQsqaUBKTNV-1">
          <mxGeometry x="339.38" y="410" width="211.25" height="30" as="geometry" />
        </mxCell>
        <mxCell id="PsWJkAB9E4H3LvCqjvFp-22" style="edgeStyle=orthogonalEdgeStyle;rounded=0;orthogonalLoop=1;jettySize=auto;html=1;exitX=0.5;exitY=1;exitDx=0;exitDy=0;entryX=0.5;entryY=0;entryDx=0;entryDy=0;endArrow=none;endFill=0;" edge="1" parent="WIyWlLk6GJQsqaUBKTNV-1" source="PsWJkAB9E4H3LvCqjvFp-16" target="PsWJkAB9E4H3LvCqjvFp-19">
          <mxGeometry relative="1" as="geometry" />
        </mxCell>
        <mxCell id="PsWJkAB9E4H3LvCqjvFp-16" value="Imprimir: cantidad_salchipapas + &quot;x Queen salchi =&quot;+ precio_productos" style="shape=parallelogram;perimeter=parallelogramPerimeter;whiteSpace=wrap;html=1;fixedSize=1;" vertex="1" parent="WIyWlLk6GJQsqaUBKTNV-1">
          <mxGeometry x="283.74" y="460" width="322.5" height="50" as="geometry" />
        </mxCell>
        <mxCell id="PsWJkAB9E4H3LvCqjvFp-23" style="edgeStyle=orthogonalEdgeStyle;rounded=0;orthogonalLoop=1;jettySize=auto;html=1;exitX=0.5;exitY=1;exitDx=0;exitDy=0;entryX=0.5;entryY=0;entryDx=0;entryDy=0;endArrow=none;endFill=0;" edge="1" parent="WIyWlLk6GJQsqaUBKTNV-1" source="PsWJkAB9E4H3LvCqjvFp-19" target="PsWJkAB9E4H3LvCqjvFp-20">
          <mxGeometry relative="1" as="geometry" />
        </mxCell>
        <mxCell id="PsWJkAB9E4H3LvCqjvFp-19" value="Imprimir: &quot;Impuesto al consumo (0.08) = &quot; + precio_impuesto" style="shape=parallelogram;perimeter=parallelogramPerimeter;whiteSpace=wrap;html=1;fixedSize=1;" vertex="1" parent="WIyWlLk6GJQsqaUBKTNV-1">
          <mxGeometry x="307.51" y="530" width="274.99" height="50" as="geometry" />
        </mxCell>
        <mxCell id="PsWJkAB9E4H3LvCqjvFp-27" style="edgeStyle=orthogonalEdgeStyle;rounded=0;orthogonalLoop=1;jettySize=auto;html=1;exitX=0.5;exitY=1;exitDx=0;exitDy=0;entryX=0.5;entryY=0;entryDx=0;entryDy=0;endArrow=none;endFill=0;" edge="1" parent="WIyWlLk6GJQsqaUBKTNV-1" source="PsWJkAB9E4H3LvCqjvFp-20" target="PsWJkAB9E4H3LvCqjvFp-26">
          <mxGeometry relative="1" as="geometry" />
        </mxCell>
        <mxCell id="PsWJkAB9E4H3LvCqjvFp-20" value="Imprimir: &quot;Total a pagar = &quot; + precio_total&amp;nbsp;" style="shape=parallelogram;perimeter=parallelogramPerimeter;whiteSpace=wrap;html=1;fixedSize=1;" vertex="1" parent="WIyWlLk6GJQsqaUBKTNV-1">
          <mxGeometry x="307.5" y="600" width="274.99" height="50" as="geometry" />
        </mxCell>
        <mxCell id="PsWJkAB9E4H3LvCqjvFp-30" style="edgeStyle=orthogonalEdgeStyle;rounded=0;orthogonalLoop=1;jettySize=auto;html=1;exitX=0.5;exitY=1;exitDx=0;exitDy=0;entryX=0.5;entryY=0;entryDx=0;entryDy=0;endArrow=none;endFill=0;" edge="1" parent="WIyWlLk6GJQsqaUBKTNV-1" source="PsWJkAB9E4H3LvCqjvFp-26" target="PsWJkAB9E4H3LvCqjvFp-29">
          <mxGeometry relative="1" as="geometry" />
        </mxCell>
        <mxCell id="PsWJkAB9E4H3LvCqjvFp-26" value="Imprimir: &quot;Â¡Muchas gracias por comprar en Queen Papa!&quot;" style="shape=parallelogram;perimeter=parallelogramPerimeter;whiteSpace=wrap;html=1;fixedSize=1;" vertex="1" parent="WIyWlLk6GJQsqaUBKTNV-1">
          <mxGeometry x="314.99" y="670" width="260" height="60" as="geometry" />
        </mxCell>
        <mxCell id="PsWJkAB9E4H3LvCqjvFp-29" value="Inicio" style="rounded=1;whiteSpace=wrap;html=1;fillColor=#f8cecc;strokeColor=#b85450;" vertex="1" parent="WIyWlLk6GJQsqaUBKTNV-1">
          <mxGeometry x="409.99" y="750" width="70" height="30" as="geometry" />
        </mxCell>
      </root>
    </mxGraphModel>
  </diagram>
</mxfile>
